# xmcd
#
# Track frame offsets: 
#        150
#        39788
#        51834
#        74853
#        94314
#        135747
#        148021
#
# Disc length: 2241 seconds
#
# Revision: 0
# Processed by: cddbd v1.4PL0 Copyright (c) Steve Scherf et al.
# Submitted via: ExactAudioCopy v0.90b4
#
DISCID=6908bf07
DTITLE=Van Morrison - Milano 2001, disc 2
DYEAR=2001
DGENRE=Celtic
TTITLE0=Outskirts Of Town
TTITLE1=When You're Smiling
TTITLE2=St James Infirmary
TTITLE3=Bright Side Of The Road
TTITLE4=It's All In The Game
TTITLE5=Star Of The County Down
TTITLE6=Brown Eyed Girl
EXTD=
EXTT0=
EXTT1=
EXTT2=
EXTT3=
EXTT4=
EXTT5=
EXTT6=
PLAYORDER=
